<?xml version="1.0" encoding="utf-8"?>
<!-- Generator: Adobe Illustrator 28.1.0, SVG Export Plug-In . SVG Version: 6.00 Build 0)  -->
<svg version="1.1" id="Capa_1" xmlns="http://www.w3.org/2000/svg" xmlns:xlink="http://www.w3.org/1999/xlink" x="0px" y="0px"
	 viewBox="0 0 256 256" style="enable-background:new 0 0 256 256;" xml:space="preserve">
<style type="text/css">
	.st0{fill:#058527;}
</style>
<g>
	<path class="st0" d="M224,0H32C14.4,0,0.1,14.3,0,32v192c0,17.6,14.4,32,32,32h192c17.6,0,32-14.4,32-32V32C256,14.4,241.6,0,224,0
		z M47.9,92c-0.3,4.4-2,8.1-5.1,11h-0.3c-2.7,2.9-4.7,6.2-5.9,10c-0.9,2.9-1.2,6.1-1,9.7c0.2,2.4,0.6,5.1,1.2,8.2
		c0.6,3.1,0.9,4.8,0.9,5.1v62.4c0,1.7-0.6,3.2-1.9,4.5s-2.8,1.9-4.6,1.9c-1.8,0-3.3-0.6-4.5-1.9c-1.2-1.3-1.8-2.8-1.8-4.5V136
		c0-0.5,0.4-2.1,1.2-4.7c0.8-2.6,1.2-5.1,1.4-7.3c0.3-3.4,0.1-6.7-0.8-9.7c-1-3.7-3-7.2-5.9-10.5c-1.9-1.5-3.4-3.4-4.5-5.6
		c-1.1-2.2-1.7-4.7-1.7-7.4V89l4.1-34h3.6l-1.3,40.4h4.6V55h3.6v40.4h3.8V55h3.3v40.2H41L40,55h3.8L47.9,91V92z M196,169
		c-6.8,11.6-16,20.8-27.6,27.6c-12.1,7-25.2,10.5-39.1,10.5c-14,0-26.9-3.5-38.9-10.5c-11.6-6.8-20.8-16.1-27.6-27.9
		C55.6,156.8,52,143.9,52,130c0-13.9,3.6-26.9,10.7-39c6.8-11.6,15.9-20.8,27.4-27.6c11.9-7.1,24.8-10.7,38.8-10.7c0,0-0.1,0-0.1,0
		h0.3c0,0-0.1,0-0.1,0c14.1,0,27.2,3.5,39.3,10.5c11.8,6.8,21.1,16,27.9,27.6c7,12.1,10.5,25.2,10.5,39.1
		C206.5,143.9,203,156.9,196,169z M238.2,200c0,1.7-0.6,3.2-1.8,4.5c-1.2,1.3-2.7,1.9-4.5,1.9c-1.8,0-3.3-0.6-4.5-1.9
		c-1.2-1.3-1.8-2.8-1.8-4.5l-0.5-42.5c0.9-1.4,1.4-3.2,1.8-5.4c0.7-3.2,0.5-6.1-0.5-8.4c-1.4-3.2-4-5.5-7.9-6.7
		c0-13.6,0.6-25.9,1.8-36.8c1-9.2,2.5-17.3,4.3-24.3c1.5-5.5,3.2-10.1,5.1-14.1c1.5-2.7,3-4.9,4.3-6.6l2-1.5h2v98.5
		c0,15.9,0.1,31.7,0.3,47.6L238.2,200z"/>
	<path class="st0" d="M160.2,75.7c-9.4-5.3-19.4-7.9-29.9-7.9c-11.6,0-22.2,2.7-31.8,8.2c-9.6,5.5-17.3,12.9-22.9,22.4
		c-5.6,9.5-8.4,19.9-8.4,31.2c0,11.3,2.7,21.7,8.2,31.2c5.5,9.5,12.8,17,22.1,22.6c9.3,5.6,19.5,8.5,30.6,8.7
		c11.1,0.3,21.5-2.2,31.3-7.5c9.8-5.4,17.6-12.7,23.4-21.9c6-9.9,9-20.8,9-32.7c0-11.9-3-22.8-9-32.5
		C177.1,88.2,169.6,81,160.2,75.7z M179.9,158.5c-5.1,8.9-12.1,15.9-21,21.2c-8.9,5.3-18.5,8-28.9,8.1c-10.4,0.1-20.1-2.4-29-7.5
		c-9-5.1-16.1-12.1-21.4-21c-5.3-8.9-8-18.6-8.1-29.2c-0.1-10.6,2.4-20.3,7.5-29.2c5.1-8.9,12.1-15.9,20.8-21
		c8.8-5.1,18.4-7.8,28.8-7.9c10.6-0.2,20.3,2.3,29.2,7.4c8.9,5.1,15.9,12.1,21.2,21c5.3,8.9,8,18.5,8.2,29
		C187.5,140,185,149.7,179.9,158.5z"/>
</g>
</svg>
